# xmcd CD database file
#
# Track frame offsets:
#	183
#	20220
#	33313
#	51545
#	71890
#	84803
#	89923
#	105958
#	121843
#	138835
#	155078
#	163183
#	180920
#	195035
#	206195
#	220040
#	230290
#	237300
#	247775
#	270080
#	281075
#
# Disc length: 3885 seconds
#
# Revision: 0
# Processed by: cddbd v1.4PL0 Copyright (c) Steve Scherf et al.
# Submitted via: Feurio! 1.65 - http://www.feurio.com
#
DISCID=1d0f2b15
DTITLE=Bloomfield, Mike - True Soul Brother
DYEAR=1992
DGENRE=
TTITLE0=City Girl
TTITLE1=The Train Is Gone
TTITLE2=Gonna Need Somebody On My Bond
TTITLE3=I Must See Jesus
TTITLE4=Hey Foreman
TTITLE5=If You Love these Blues
TTITLE6=WDIA
TTITLE7=Death Cell Rounder Blues
TTITLE8=I'll Overcome
TTITLE9=Mama Lion
TTITLE10=Thrift Shop Rag
TTITLE11=Death In My family
TTITLE12=Kansas City
TTITLE13=I Am A Pilgrim
TTITLE14=Just A Closer Walk With Thee
TTITLE15=Blue Ghost Shoes
TTITLE16=East Colorado Blues
TTITLE17=Have Thine Own Way
TTITLE18=Peace In The Valley
TTITLE19=Farther Along
TTITLE20=The Altar Song
EXTD=
EXTT0=
EXTT1=
EXTT2=
EXTT3=
EXTT4=
EXTT5=
EXTT6=
EXTT7=
EXTT8=
EXTT9=
EXTT10=
EXTT11=
EXTT12=
EXTT13=
EXTT14=
EXTT15=
EXTT16=
EXTT17=
EXTT18=
EXTT19=
EXTT20=
PLAYORDER=
